# xmcd CD database file
#
# Track frame offsets:
#	182
#	12527
#	27500
#	43972
#	59965
#	77837
#	90990
#	107447
#	124222
#	138355
#
# Disc length: 2095 seconds
#
# Revision: 0
# Processed by: cddbd v1.4PL0 Copyright (c) Steve Scherf et al.
# Submitted via: CdAid 2001.05.15.01
#
DISCID=8a082d0a
DTITLE=Various Artist - Country Dance Club USA (Dance All Night)
DYEAR=1900
DGENRE=
TTITLE0=A Good Run Of Bad Luck
TTITLE1=Before You Kill Us All
TTITLE2=That Ain't No Way To Go
TTITLE3=Why Haven't I Heard From You
TTITLE4=Rope The Moon
TTITLE5=Lovebug
TTITLE6=Walking Away A Winner
TTITLE7=Your Love Amazes Me
TTITLE8=Addicted To A Dollar
TTITLE9=Don't Take The Girl
EXTD=
EXTT0=
EXTT1=
EXTT2=
EXTT3=
EXTT4=
EXTT5=
EXTT6=
EXTT7=
EXTT8=
EXTT9=
PLAYORDER=
